<svg xmlns="http://www.w3.org/2000/svg" width="20.077" height="19.3" viewBox="0 0 20.077 19.3">
  <g id="Icon_feather-shopping-cart" data-name="Icon feather-shopping-cart" transform="translate(1.5 1.5)">
    <path id="Path_1" data-name="Path 1" d="M13.552,30.776A.776.776,0,1,1,12.776,30,.776.776,0,0,1,13.552,30.776Z" transform="translate(-6.567 -15.252)" fill="none" stroke="#000" stroke-linecap="round" stroke-linejoin="round" stroke-width="3"/>
    <path id="Path_2" data-name="Path 2" d="M30.052,30.776A.776.776,0,1,1,29.276,30,.776.776,0,0,1,30.052,30.776Z" transform="translate(-14.528 -15.252)" fill="none" stroke="#000" stroke-linecap="round" stroke-linejoin="round" stroke-width="3"/>
    <path id="Path_3" data-name="Path 3" d="M1.5,1.5H4.6l2.08,10.393a1.552,1.552,0,0,0,1.552,1.25h7.545a1.552,1.552,0,0,0,1.552-1.25l1.242-6.512H5.381" transform="translate(-1.5 -1.5)" fill="none" stroke="#000" stroke-linecap="round" stroke-linejoin="round" stroke-width="3"/>
  </g>
</svg>
