<svg xmlns="http://www.w3.org/2000/svg" width="125" height="125" viewBox="0 0 125 125">
  <g id="Group_10" data-name="Group 10" transform="translate(-1374 -834)">
    <g id="Ellipse_4" data-name="Ellipse 4" transform="translate(1374 834)" fill="none" stroke="#000" stroke-width="2">
      <circle cx="62.5" cy="62.5" r="62.5" stroke="none"/>
      <circle cx="62.5" cy="62.5" r="61.5" fill="none"/>
    </g>
    <path id="Icon_simple-civicrm" data-name="Icon simple-civicrm" d="M37.537,15.09a3.874,3.874,0,0,0,.392-2.977c-.417-1.277-1.565-2.125-3.418-2.518L22.757,7.1l-12-6.42A6.047,6.047,0,0,0,8.18,0,3.212,3.212,0,0,0,5.807.952a3.954,3.954,0,0,0-1,2.407q-.166-.01-.332-.01a3.7,3.7,0,0,0-3.21,1.4,4.271,4.271,0,0,0-.268,3.97l4.415,13.53.418,11.722c.073,2.037,1.2,4.227,3.5,4.228a4.134,4.134,0,0,0,1.367-.25A3.688,3.688,0,0,0,13.795,40a4.482,4.482,0,0,0,3.26-1.772l8.517-9.495,11.305-7.138c.245-.157,2.407-1.583,2.33-3.715a3.6,3.6,0,0,0-1.67-2.79ZM12.255,33.61,8.375,21.72,7.848,6.975,21.725,9.927,33.01,15.963,23.627,26.428,12.255,33.61ZM33.89,12.517c.908.193,1.182.465,1.2.522a1.01,1.01,0,0,1-.145.573l-2.7-1.447,1.65.352ZM8.18,2.987a3.1,3.1,0,0,1,1.167.322l2.9,1.548L7.755,3.9a1.6,1.6,0,0,1,.2-.877.452.452,0,0,1,.225-.038ZM3.83,7.79C3.5,6.8,3.675,6.5,3.677,6.5a1.3,1.3,0,0,1,.793-.165c.138,0,.265.008.368.018l.182,5.083L3.83,7.79ZM8.81,33.86l-.048-1.33.857,2.623a1.133,1.133,0,0,1-.3.057C9.078,35.21,8.833,34.377,8.81,33.86Zm6.023,2.373c-.69.772-1.033.78-1.037.78-.1,0-.308-.22-.5-.528l3.03-1.913-1.492,1.662Zm20.45-17.165L32.875,20.59,35.7,17.44c.415.29.522.5.523.548C36.233,18.21,35.745,18.768,35.283,19.068Z" transform="translate(1420.354 879)"/>
  </g>
</svg>
