<svg xmlns="http://www.w3.org/2000/svg" width="125" height="125" viewBox="0 0 125 125">
  <g id="Group_9" data-name="Group 9" transform="translate(-734 -827)">
    <g id="Ellipse_3" data-name="Ellipse 3" transform="translate(734 827)" fill="none" stroke="#000" stroke-width="2">
      <circle cx="62.5" cy="62.5" r="62.5" stroke="none"/>
      <circle cx="62.5" cy="62.5" r="61.5" fill="none"/>
    </g>
    <path id="Icon_awesome-code" data-name="Icon awesome-code" d="M21.791,39.964l-4.766-1.383a.939.939,0,0,1-.641-1.164L27.049.679A.939.939,0,0,1,28.213.039l4.766,1.383a.939.939,0,0,1,.641,1.164L22.955,39.323a.936.936,0,0,1-1.164.641ZM12.884,31.2l3.4-3.625a.938.938,0,0,0-.063-1.344L9.142,20l7.079-6.227a.931.931,0,0,0,.063-1.344l-3.4-3.625a.939.939,0,0,0-1.328-.039L.3,19.314a.931.931,0,0,0,0,1.367L11.556,31.236a.932.932,0,0,0,1.328-.039Zm25.564.047L49.707,20.689a.931.931,0,0,0,0-1.367L38.448,8.758A.946.946,0,0,0,37.12,8.8l-3.4,3.625a.938.938,0,0,0,.063,1.344L40.863,20l-7.079,6.227a.931.931,0,0,0-.063,1.344l3.4,3.625a.939.939,0,0,0,1.328.047Z" transform="translate(771.002 869.997)"/>
  </g>
</svg>
