<svg xmlns="http://www.w3.org/2000/svg" width="26.761" height="26.755" viewBox="0 0 26.761 26.755">
  <path id="Icon_awesome-instagram" data-name="Icon awesome-instagram" d="M13.378,8.756a6.86,6.86,0,1,0,6.86,6.86A6.849,6.849,0,0,0,13.378,8.756Zm0,11.319a4.46,4.46,0,1,1,4.46-4.46,4.468,4.468,0,0,1-4.46,4.46Zm8.74-11.6a1.6,1.6,0,1,1-1.6-1.6A1.6,1.6,0,0,1,22.119,8.475ZM26.662,10.1A7.918,7.918,0,0,0,24.5,4.493a7.97,7.97,0,0,0-5.606-2.161c-2.209-.125-8.83-.125-11.039,0A7.959,7.959,0,0,0,2.25,4.487,7.944,7.944,0,0,0,.089,10.093c-.125,2.209-.125,8.83,0,11.039A7.918,7.918,0,0,0,2.25,26.738,7.98,7.98,0,0,0,7.856,28.9c2.209.125,8.83.125,11.039,0A7.918,7.918,0,0,0,24.5,26.738a7.97,7.97,0,0,0,2.161-5.606c.125-2.209.125-8.824,0-11.033ZM23.808,23.5a4.515,4.515,0,0,1-2.543,2.543c-1.761.7-5.94.537-7.887.537s-6.131.155-7.887-.537A4.515,4.515,0,0,1,2.948,23.5c-.7-1.761-.537-5.94-.537-7.887s-.155-6.131.537-7.887A4.515,4.515,0,0,1,5.492,5.185c1.761-.7,5.94-.537,7.887-.537s6.131-.155,7.887.537a4.515,4.515,0,0,1,2.543,2.543c.7,1.761.537,5.94.537,7.887S24.507,21.747,23.808,23.5Z" transform="translate(0.005 -2.238)" fill="#000"/>
</svg>
