<svg xmlns="http://www.w3.org/2000/svg" width="15.082" height="40.22" viewBox="0 0 15.082 40.22">
  <g id="Icon_ionic-md-man" data-name="Icon ionic-md-man" transform="translate(-12.094 -2.25)">
    <path id="Path_8" data-name="Path 8" d="M18.726,8.947A3.349,3.349,0,1,0,15.377,5.6,3.337,3.337,0,0,0,18.726,8.947Z" transform="translate(0.909 0)"/>
    <path id="Path_9" data-name="Path 9" d="M22.992,8.086H16.277a4.3,4.3,0,0,0-4.183,4.345v10.2a1.394,1.394,0,1,0,2.783,0V13.2h.539V38.842a1.932,1.932,0,1,0,3.86,0V24.065h.718V38.851a1.931,1.931,0,1,0,3.86-.009V13.2H24.3v9.426a1.437,1.437,0,1,0,2.873,0v-10.2A4.31,4.31,0,0,0,22.992,8.086Z" transform="translate(0 1.615)"/>
  </g>
</svg>
