<svg xmlns="http://www.w3.org/2000/svg" width="125" height="125" viewBox="0 0 125 125">
  <g id="setup_icon" transform="translate(-1694 -834)">
    <g id="Ellipse_5" data-name="Ellipse 5" transform="translate(1694 834)" fill="none" stroke="#000" stroke-width="2">
      <circle cx="62.5" cy="62.5" r="62.5" stroke="none"/>
      <circle cx="62.5" cy="62.5" r="61.5" fill="none"/>
    </g>
    <g id="Icon_feather-settings" data-name="Icon feather-settings" transform="translate(1735.5 876.5)">
      <path id="Path_11" data-name="Path 11" d="M22.5,18A4.5,4.5,0,1,1,18,13.5,4.5,4.5,0,0,1,22.5,18Z" transform="translate(3.5 3.5)" fill="none" stroke="#000" stroke-linecap="round" stroke-linejoin="round" stroke-width="3"/>
      <path id="Path_12" data-name="Path 12" d="M34.955,26.955a3,3,0,0,0,.6,3.309l.109.109a3.638,3.638,0,1,1-5.145,5.145l-.109-.109a3.024,3.024,0,0,0-5.127,2.145v.309a3.636,3.636,0,0,1-7.273,0V37.7a3,3,0,0,0-1.964-2.745,3,3,0,0,0-3.309.6l-.109.109a3.638,3.638,0,1,1-5.145-5.145l.109-.109a3.024,3.024,0,0,0-2.145-5.127H5.136a3.636,3.636,0,0,1,0-7.273H5.3a3,3,0,0,0,2.745-1.964,3,3,0,0,0-.6-3.309l-.109-.109a3.638,3.638,0,1,1,5.145-5.145l.109.109a3,3,0,0,0,3.309.6h.145a3,3,0,0,0,1.818-2.745V5.136a3.636,3.636,0,0,1,7.273,0V5.3a3.024,3.024,0,0,0,5.127,2.145l.109-.109a3.638,3.638,0,1,1,5.145,5.145l-.109.109a3,3,0,0,0-.6,3.309v.145a3,3,0,0,0,2.745,1.818h.309a3.636,3.636,0,1,1,0,7.273H37.7a3,3,0,0,0-2.745,1.818Z" fill="none" stroke="#000" stroke-linecap="round" stroke-linejoin="round" stroke-width="3"/>
    </g>
  </g>
</svg>
