<svg xmlns="http://www.w3.org/2000/svg" width="160" height="42" viewBox="0 0 160 42">
  <defs>
    <style>
      .cls-1 {
        fill: #fff;
      }

      .cls-2 {
        font-size: 20px;
        font-family: Montserrat-Medium, Montserrat;
        font-weight: 500;
      }

      .cls-3, .cls-4 {
        stroke: none;
      }
    </style>
  </defs>
  <g id="shop_btn" transform="translate(-646 -24)">
    <g id="Path_15" data-name="Path 15" class="cls-1" transform="translate(646 24)">
      <path class="cls-3" d="M 145 41 L 15 41 C 11.26045799255371 41 7.744750022888184 39.54375076293945 5.100500106811523 36.89950180053711 C 2.456249952316284 34.2552490234375 1 30.73954200744629 1 27 L 1 15 C 1 11.26045799255371 2.456249952316284 7.744750022888184 5.100500106811523 5.100500106811523 C 7.744750022888184 2.456249952316284 11.26045799255371 1 15 1 L 145 1 C 148.7395477294922 1 152.2552490234375 2.456249952316284 154.8995056152344 5.100500106811523 C 157.5437469482422 7.744750022888184 159 11.26045799255371 159 15 L 159 27 C 159 30.73954200744629 157.5437469482422 34.2552490234375 154.8995056152344 36.89950180053711 C 152.2552490234375 39.54375076293945 148.7395477294922 41 145 41 Z"/>
      <path class="cls-4" d="M 15 2 C 11.52757263183594 2 8.262985229492188 3.352237701416016 5.807601928710938 5.807609558105469 C 3.35223388671875 8.262977600097656 2 11.52756500244141 2 15 L 2 27 C 2 30.472412109375 3.35223388671875 33.73699951171875 5.807601928710938 36.19239044189453 C 8.262985229492188 38.64776229858398 11.52757263183594 40 15 40 L 145 40 C 148.472412109375 40 151.7369995117188 38.64776229858398 154.1923980712891 36.19239044189453 C 156.6477661132813 33.73699951171875 158 30.472412109375 158 27 L 158 15 C 158 11.52756500244141 156.6477661132813 8.262977600097656 154.1923980712891 5.807609558105469 C 151.7369995117188 3.352237701416016 148.472412109375 2 145 2 L 15 2 M 15 0 L 145 0 C 153.2842559814453 0 160 6.715717315673828 160 15 L 160 27 C 160 35.28425979614258 153.2842559814453 42 145 42 L 15 42 C 6.715713500976563 42 0 35.28425979614258 0 27 L 0 15 C 0 6.715717315673828 6.715713500976563 0 15 0 Z"/>
    </g>
    <text id="Visit_our_store" data-name="Visit our store" class="cls-2" transform="translate(657 52)"><tspan x="0" y="0">Visit our store</tspan></text>
  </g>
</svg>
