
<svg xmlns="http://www.w3.org/2000/svg" width="32.523" height="26.415" viewBox="0 0 32.523 26.415">
  <path id="Icon_awesome-twitter" data-name="Icon awesome-twitter" d="M29.18,9.964c.021.289.021.578.021.867,0,8.812-6.707,18.965-18.965,18.965A18.836,18.836,0,0,1,0,26.8a13.789,13.789,0,0,0,1.61.083,13.349,13.349,0,0,0,8.275-2.848,6.677,6.677,0,0,1-6.232-4.623,8.406,8.406,0,0,0,1.259.1,7.05,7.05,0,0,0,1.754-.227A6.667,6.667,0,0,1,1.321,12.75v-.083a6.713,6.713,0,0,0,3.013.846A6.676,6.676,0,0,1,2.27,4.6a18.947,18.947,0,0,0,13.744,6.975,7.525,7.525,0,0,1-.165-1.527A6.672,6.672,0,0,1,27.385,5.486a13.123,13.123,0,0,0,4.231-1.61,6.648,6.648,0,0,1-2.93,3.673,13.363,13.363,0,0,0,3.838-1.032A14.328,14.328,0,0,1,29.18,9.964Z" transform="translate(0 -3.381)" fill="#000"/>
</svg>
